<svg width="24" height="24" viewBox="0 0 24 24" fill="none" xmlns="http://www.w3.org/2000/svg">
<path d="M6.51772 6.51773C5.15696 7.88094 4.35245 9.70193 4.26095 11.6259C4.16946 13.5499 4.79752 15.439 6.02278 16.9252C7.24803 18.4114 8.9827 19.3882 10.8888 19.6653C12.7949 19.9424 14.7359 19.4999 16.3336 18.4241C17.9313 17.3483 19.0712 15.7162 19.5313 13.8458C19.9914 11.9754 19.7387 10.0007 18.8224 8.3065C17.9061 6.61226 16.3919 5.31985 14.5748 4.68106C12.7576 4.04228 10.7678 4.10288 8.99289 4.85107C8.06828 5.24219 7.22785 5.80809 6.51772 6.51773ZM12.0213 18.4965C10.3039 18.5153 8.64948 17.8511 7.42185 16.6501C6.19422 15.449 5.49397 13.8095 5.47516 12.0922C5.45635 10.3749 6.12052 8.72042 7.32155 7.49279C8.52258 6.26515 10.1621 5.56491 11.8794 5.5461H12.0213V18.4965Z" fill="white"/>
<path d="M12.0071 24C9.63311 24.0014 7.31206 23.2986 5.33758 21.9806C3.36311 20.6626 1.82394 18.7885 0.914808 16.5955C0.00567757 14.4025 -0.23256 11.9891 0.230236 9.66066C0.693033 7.33223 1.83607 5.19338 3.51472 3.51472C5.19338 1.83607 7.33223 0.693033 9.66066 0.230236C11.9891 -0.23256 14.4025 0.00567757 16.5955 0.914808C18.7885 1.82394 20.6626 3.36311 21.9806 5.33758C23.2986 7.31206 24.0014 9.63311 24 12.0071C23.9944 15.1861 22.729 18.2333 20.4811 20.4811C18.2333 22.729 15.1861 23.9944 12.0071 24ZM12.0071 1.92199C10.0124 1.92199 8.0626 2.51347 6.40411 3.62164C4.74562 4.7298 3.45299 6.30488 2.68967 8.14769C1.92635 9.9905 1.72664 12.0183 2.11577 13.9746C2.50491 15.9309 3.46542 17.7279 4.87585 19.1383C6.28627 20.5488 8.08327 21.5093 10.0396 21.8984C11.9959 22.2875 14.0237 22.0878 15.8665 21.3245C17.7093 20.5612 19.2844 19.2686 20.3925 17.6101C21.5007 15.9516 22.0922 14.0017 22.0922 12.0071C22.0884 9.33351 21.0247 6.7705 19.1342 4.87999C17.2437 2.98948 14.6807 1.92574 12.0071 1.92199Z" fill="white"/>
</svg>
